<?xml version="1.0" encoding="UTF-8"?>
<svg width="800" height="600" xmlns="http://www.w3.org/2000/svg">
    <rect width="100%" height="100%" fill="#f8f9fa"/>
    
    <!-- Header -->
    <rect x="0" y="0" width="800" height="80" fill="#ffffff" stroke="#e9ecef"/>
    <circle cx="50" cy="40" r="20" fill="#339af0"/> <!-- Logo -->
    <rect x="600" y="30" width="30" height="30" fill="none" stroke="#495057" stroke-width="2"/> <!-- Cart -->
    
    <!-- Product Grid -->
    <g transform="translate(50,120)">
        <!-- Product Card 1 -->
        <rect x="0" y="0" width="220" height="280" fill="white" stroke="#e9ecef"/>
        <rect x="20" y="20" width="180" height="140" fill="#e9ecef" rx="4"/>
        <rect x="20" y="180" width="140" height="20" fill="#e9ecef"/>
        <rect x="20" y="210" width="80" height="20" fill="#339af0"/>
        
        <!-- Product Card 2 -->
        <rect x="260" y="0" width="220" height="280" fill="white" stroke="#e9ecef"/>
        <rect x="280" y="20" width="180" height="140" fill="#e9ecef" rx="4"/>
        <rect x="280" y="180" width="140" height="20" fill="#e9ecef"/>
        <rect x="280" y="210" width="80" height="20" fill="#339af0"/>
        
        <!-- Product Card 3 -->
        <rect x="520" y="0" width="220" height="280" fill="white" stroke="#e9ecef"/>
        <rect x="540" y="20" width="180" height="140" fill="#e9ecef" rx="4"/>
        <rect x="540" y="180" width="140" height="20" fill="#e9ecef"/>
        <rect x="540" y="210" width="80" height="20" fill="#339af0"/>
    </g>
</svg>
